<svg width="259" height="74" viewBox="0 0 259 74" fill="none" xmlns="http://www.w3.org/2000/svg">
<path d="M33.0446 25L36.6908 27.8885L24.6462 47.1659L21 44.2774L33.0446 25Z" fill="black"/>
<path d="M40.0221 25L36.3759 27.8885L43.8525 39.8548L47.4987 36.9663L40.0221 25Z" fill="black"/>
<path d="M33 25L33 30L40 30L40 25L33 25Z" fill="black"/>
<path d="M52.6244 42.5C52.6244 45.5376 50.1619 48 47.1244 48C44.0868 48 41.6244 45.5376 41.6244 42.5C41.6244 39.4624 44.0868 37 47.1244 37C50.1619 37 52.6244 39.4624 52.6244 42.5ZM44.7952 42.5C44.7952 43.7864 45.838 44.8292 47.1244 44.8292C48.4107 44.8292 49.4535 43.7864 49.4535 42.5C49.4535 41.2136 48.4107 40.1708 47.1244 40.1708C45.838 40.1708 44.7952 41.2136 44.7952 42.5Z" fill="black"/>
<path d="M12.5981 37L24.799 15.8673L49.201 15.8673L61.4019 37L49.201 58.1327L24.799 58.1327L12.5981 37Z" stroke="black" stroke-width="4.5"/>
<path d="M73.45 49L82.975 25.75H83.025L92.55 49H89.525L86.875 42.325H79L76.325 49H73.45ZM79.95 39.95H85.925L84.15 35.5C83.9333 34.9333 83.725 34.375 83.525 33.825C83.325 33.275 83.125 32.6167 82.925 31.85C82.725 32.6167 82.5333 33.275 82.35 33.825C82.1667 34.3583 81.9583 34.9167 81.725 35.5L79.95 39.95ZM100.637 49.3C99.5867 49.3 98.6034 49.0417 97.6867 48.525C96.7701 47.9917 96.0284 47.225 95.4617 46.225C94.8951 45.225 94.6117 44.025 94.6117 42.625V34H97.3117V42.25C97.3117 43.4333 97.6617 44.4833 98.3617 45.4C99.0784 46.3 100.078 46.75 101.362 46.75C102.412 46.75 103.345 46.375 104.162 45.625C104.995 44.8583 105.412 43.7583 105.412 42.325V34H108.112V49H105.612V46.575C105.062 47.4583 104.345 48.1333 103.462 48.6C102.595 49.0667 101.653 49.3 100.637 49.3ZM114.662 49V36.25H111.262V34H114.737V29H117.287V34H121.012V36.25H117.362V49H114.662ZM130.273 49.3C128.823 49.3 127.498 48.95 126.298 48.25C125.098 47.55 124.14 46.6083 123.423 45.425C122.723 44.2417 122.373 42.9333 122.373 41.5C122.373 40.05 122.723 38.7417 123.423 37.575C124.14 36.3917 125.098 35.45 126.298 34.75C127.498 34.05 128.823 33.7 130.273 33.7C131.74 33.7 133.065 34.05 134.248 34.75C135.448 35.45 136.398 36.3917 137.098 37.575C137.815 38.7417 138.173 40.05 138.173 41.5C138.173 42.9333 137.815 44.2417 137.098 45.425C136.398 46.6083 135.448 47.55 134.248 48.25C133.065 48.95 131.74 49.3 130.273 49.3ZM130.273 46.75C131.24 46.75 132.115 46.5167 132.898 46.05C133.682 45.5667 134.307 44.9333 134.773 44.15C135.24 43.35 135.473 42.4667 135.473 41.5C135.473 40.5333 135.24 39.6583 134.773 38.875C134.307 38.075 133.682 37.4417 132.898 36.975C132.115 36.4917 131.24 36.25 130.273 36.25C129.307 36.25 128.432 36.4917 127.648 36.975C126.865 37.4417 126.24 38.075 125.773 38.875C125.307 39.6583 125.073 40.5333 125.073 41.5C125.073 42.4667 125.307 43.35 125.773 44.15C126.24 44.9333 126.865 45.5667 127.648 46.05C128.432 46.5167 129.307 46.75 130.273 46.75ZM141.916 49V34H144.416V36.15C144.966 35.3333 145.657 34.725 146.491 34.325C147.341 33.9083 148.232 33.7 149.166 33.7C150.182 33.7 151.116 33.9417 151.966 34.425C152.816 34.8917 153.499 35.55 154.016 36.4C154.599 35.5 155.349 34.825 156.266 34.375C157.199 33.925 158.182 33.7 159.216 33.7C160.349 33.7 161.382 33.9667 162.316 34.5C163.266 35.0333 164.016 35.7833 164.566 36.75C165.132 37.7 165.416 38.825 165.416 40.125V49H162.716V40.45C162.716 39.0833 162.324 38.05 161.541 37.35C160.774 36.6333 159.882 36.275 158.866 36.275C158.232 36.275 157.616 36.4167 157.016 36.7C156.432 36.9833 155.949 37.425 155.566 38.025C155.199 38.625 155.016 39.4083 155.016 40.375V49H152.316V40.45C152.316 39.5 152.124 38.7167 151.741 38.1C151.374 37.4833 150.891 37.025 150.291 36.725C149.707 36.4083 149.099 36.25 148.466 36.25C147.849 36.25 147.241 36.3917 146.641 36.675C146.057 36.9583 145.574 37.4 145.191 38C144.807 38.6 144.616 39.3917 144.616 40.375V49H141.916ZM176.325 49.2C174.958 49.2 173.708 48.8583 172.575 48.175C171.442 47.475 170.533 46.5417 169.85 45.375C169.183 44.2083 168.85 42.9167 168.85 41.5C168.85 40.0833 169.183 38.7917 169.85 37.625C170.533 36.4583 171.442 35.5333 172.575 34.85C173.708 34.15 174.958 33.8 176.325 33.8C177.358 33.8 178.325 33.9917 179.225 34.375C180.142 34.7583 180.933 35.2917 181.6 35.975V34H184.1V49H181.6V47.025C180.933 47.6917 180.142 48.225 179.225 48.625C178.325 49.0083 177.358 49.2 176.325 49.2ZM176.675 46.75C177.625 46.75 178.483 46.5167 179.25 46.05C180.033 45.5667 180.65 44.9333 181.1 44.15C181.567 43.35 181.8 42.4667 181.8 41.5C181.8 40.5333 181.567 39.6583 181.1 38.875C180.65 38.075 180.033 37.4417 179.25 36.975C178.483 36.4917 177.625 36.25 176.675 36.25C175.725 36.25 174.858 36.4917 174.075 36.975C173.308 37.4417 172.692 38.075 172.225 38.875C171.775 39.6583 171.55 40.5333 171.55 41.5C171.55 42.4667 171.775 43.35 172.225 44.15C172.692 44.9333 173.308 45.5667 174.075 46.05C174.858 46.5167 175.725 46.75 176.675 46.75ZM190.634 49V36.25H187.234V34H190.709V29H193.259V34H196.984V36.25H193.334V49H190.634ZM200.134 49V34H202.834V49H200.134ZM201.484 31.3C200.984 31.3 200.559 31.125 200.209 30.775C199.859 30.425 199.684 30 199.684 29.5C199.684 28.9833 199.859 28.5583 200.209 28.225C200.559 27.875 200.984 27.7 201.484 27.7C202.001 27.7 202.426 27.875 202.759 28.225C203.109 28.5583 203.284 28.9833 203.284 29.5C203.284 30 203.109 30.425 202.759 30.775C202.426 31.125 202.001 31.3 201.484 31.3ZM214.473 49.3C213.023 49.3 211.698 48.95 210.498 48.25C209.298 47.55 208.339 46.6083 207.623 45.425C206.923 44.2417 206.573 42.9333 206.573 41.5C206.573 40.05 206.923 38.7417 207.623 37.575C208.339 36.3917 209.298 35.45 210.498 34.75C211.698 34.05 213.023 33.7 214.473 33.7C215.939 33.7 217.264 34.05 218.448 34.75C219.648 35.45 220.598 36.3917 221.298 37.575C222.014 38.7417 222.373 40.05 222.373 41.5C222.373 42.9333 222.014 44.2417 221.298 45.425C220.598 46.6083 219.648 47.55 218.448 48.25C217.264 48.95 215.939 49.3 214.473 49.3ZM214.473 46.75C215.439 46.75 216.314 46.5167 217.098 46.05C217.881 45.5667 218.506 44.9333 218.973 44.15C219.439 43.35 219.673 42.4667 219.673 41.5C219.673 40.5333 219.439 39.6583 218.973 38.875C218.506 38.075 217.881 37.4417 217.098 36.975C216.314 36.4917 215.439 36.25 214.473 36.25C213.506 36.25 212.631 36.4917 211.848 36.975C211.064 37.4417 210.439 38.075 209.973 38.875C209.506 39.6583 209.273 40.5333 209.273 41.5C209.273 42.4667 209.506 43.35 209.973 44.15C210.439 44.9333 211.064 45.5667 211.848 46.05C212.631 46.5167 213.506 46.75 214.473 46.75ZM226.115 49V34H228.615V36.425C229.165 35.5417 229.873 34.8667 230.74 34.4C231.623 33.9333 232.573 33.7 233.59 33.7C234.657 33.7 235.64 33.9667 236.54 34.5C237.457 35.0167 238.198 35.775 238.765 36.775C239.332 37.7583 239.615 38.9583 239.615 40.375V49H236.915V40.75C236.915 39.5667 236.557 38.525 235.84 37.625C235.14 36.7083 234.148 36.25 232.865 36.25C231.815 36.25 230.873 36.6333 230.04 37.4C229.223 38.15 228.815 39.2417 228.815 40.675V49H226.115ZM242.315 49L251.665 30.175H243.415V26.5H257.69L248.34 45.325H257.19V49H242.315Z" fill="black"/>
</svg>
