<svg width="74" height="74" viewBox="0 0 74 74" fill="none" xmlns="http://www.w3.org/2000/svg">
<path d="M33.0446 25L36.6908 27.8885L24.6462 47.1659L21 44.2774L33.0446 25Z" fill="black"/>
<path d="M40.0221 25L36.3759 27.8885L43.8525 39.8548L47.4987 36.9663L40.0221 25Z" fill="black"/>
<path d="M33 25L33 30L40 30L40 25L33 25Z" fill="black"/>
<path d="M52.6244 42.5C52.6244 45.5376 50.1619 48 47.1244 48C44.0868 48 41.6244 45.5376 41.6244 42.5C41.6244 39.4624 44.0868 37 47.1244 37C50.1619 37 52.6244 39.4624 52.6244 42.5ZM44.7952 42.5C44.7952 43.7864 45.838 44.8292 47.1244 44.8292C48.4107 44.8292 49.4535 43.7864 49.4535 42.5C49.4535 41.2136 48.4107 40.1708 47.1244 40.1708C45.838 40.1708 44.7952 41.2136 44.7952 42.5Z" fill="black"/>
<path d="M12.5981 37L24.799 15.8673L49.201 15.8673L61.4019 37L49.201 58.1327L24.799 58.1327L12.5981 37Z" stroke="black" stroke-width="4.5"/>
</svg>
