<svg width="994" height="128" viewBox="0 0 994 128" fill="none" xmlns="http://www.w3.org/2000/svg">
<g clip-path="url(#clip0_1_65)">
<rect width="994" height="128" rx="20" fill="#F1BD6C" fill-opacity="0.2"/>
<path d="M41.5186 46.9326L46.8994 25.9844H49.7197L49.4043 31.3838L43.6523 53H40.7207L41.5186 46.9326ZM37.4922 25.9844L41.8525 46.7656L42.2422 53H39.125L32.8721 25.9844H37.4922ZM55.8242 46.71L60.1289 25.9844H64.7676L58.5146 53H55.3975L55.8242 46.71ZM50.8145 25.9844L56.1396 46.9883L56.9189 53H53.9873L48.3281 31.3838L48.0312 25.9844H50.8145ZM76.0303 53.3711C74.5459 53.3711 73.2038 53.1299 72.0039 52.6475C70.8164 52.1527 69.8021 51.4661 68.9609 50.5879C68.1322 49.7096 67.4951 48.6768 67.0498 47.4893C66.6045 46.3018 66.3818 45.0215 66.3818 43.6484V42.9062C66.3818 41.3353 66.6107 39.9128 67.0684 38.6387C67.526 37.3646 68.1631 36.276 68.9795 35.373C69.7959 34.4577 70.7607 33.7588 71.874 33.2764C72.9873 32.7939 74.1934 32.5527 75.4922 32.5527C76.9271 32.5527 78.1826 32.7939 79.2588 33.2764C80.335 33.7588 81.2256 34.4391 81.9307 35.3174C82.6481 36.1833 83.18 37.2161 83.5264 38.416C83.8851 39.6159 84.0645 40.9395 84.0645 42.3867V44.2979H68.5527V41.0879H79.6484V40.7354C79.6237 39.9313 79.4629 39.1768 79.166 38.4717C78.8815 37.7666 78.4424 37.1976 77.8486 36.7646C77.2549 36.3317 76.4632 36.1152 75.4736 36.1152C74.7314 36.1152 74.0697 36.276 73.4883 36.5977C72.9193 36.9069 72.443 37.3584 72.0596 37.9521C71.6761 38.5459 71.3792 39.2633 71.1689 40.1045C70.971 40.9333 70.8721 41.8672 70.8721 42.9062V43.6484C70.8721 44.5267 70.9896 45.3431 71.2246 46.0977C71.472 46.8398 71.8307 47.4893 72.3008 48.0459C72.7708 48.6025 73.3398 49.0417 74.0078 49.3633C74.6758 49.6725 75.4365 49.8271 76.29 49.8271C77.3662 49.8271 78.3249 49.6107 79.166 49.1777C80.0072 48.7448 80.737 48.1325 81.3555 47.3408L83.7119 49.623C83.279 50.2539 82.7161 50.86 82.0234 51.4414C81.3307 52.0104 80.4834 52.4743 79.4814 52.833C78.4919 53.1917 77.3415 53.3711 76.0303 53.3711ZM92.3398 24.5V53H87.8496V24.5H92.3398ZM105.439 49.8086C106.169 49.8086 106.825 49.6663 107.406 49.3818C108 49.085 108.476 48.6768 108.835 48.1572C109.206 47.6377 109.41 47.0378 109.447 46.3574H113.659C113.634 47.6562 113.251 48.8376 112.509 49.9014C111.767 50.9652 110.783 51.8125 109.559 52.4434C108.334 53.0618 106.979 53.3711 105.495 53.3711C103.961 53.3711 102.625 53.1113 101.487 52.5918C100.349 52.0599 99.403 51.3301 98.6484 50.4023C97.8939 49.4746 97.3249 48.4046 96.9414 47.1924C96.5703 45.9801 96.3848 44.6813 96.3848 43.2959V42.6465C96.3848 41.2611 96.5703 39.9622 96.9414 38.75C97.3249 37.5254 97.8939 36.4492 98.6484 35.5215C99.403 34.5938 100.349 33.8701 101.487 33.3506C102.625 32.8187 103.955 32.5527 105.477 32.5527C107.085 32.5527 108.495 32.8743 109.707 33.5176C110.919 34.1484 111.872 35.0329 112.564 36.1709C113.27 37.2965 113.634 38.6077 113.659 40.1045H109.447C109.41 39.3623 109.225 38.6943 108.891 38.1006C108.569 37.4945 108.111 37.012 107.518 36.6533C106.936 36.2946 106.237 36.1152 105.421 36.1152C104.518 36.1152 103.77 36.3008 103.176 36.6719C102.582 37.0306 102.118 37.5254 101.784 38.1562C101.45 38.7747 101.209 39.4736 101.061 40.2529C100.924 41.0199 100.856 41.8177 100.856 42.6465V43.2959C100.856 44.1247 100.924 44.9287 101.061 45.708C101.197 46.4873 101.432 47.1862 101.766 47.8047C102.112 48.4108 102.582 48.8994 103.176 49.2705C103.77 49.6292 104.524 49.8086 105.439 49.8086ZM116.238 43.1846V42.7578C116.238 41.3105 116.449 39.9684 116.869 38.7314C117.29 37.4821 117.896 36.3997 118.688 35.4844C119.492 34.5566 120.469 33.8392 121.619 33.332C122.782 32.8125 124.093 32.5527 125.553 32.5527C127.025 32.5527 128.336 32.8125 129.486 33.332C130.649 33.8392 131.632 34.5566 132.437 35.4844C133.241 36.3997 133.853 37.4821 134.273 38.7314C134.694 39.9684 134.904 41.3105 134.904 42.7578V43.1846C134.904 44.6318 134.694 45.974 134.273 47.2109C133.853 48.4479 133.241 49.5303 132.437 50.458C131.632 51.3734 130.655 52.0908 129.505 52.6104C128.354 53.1175 127.049 53.3711 125.59 53.3711C124.118 53.3711 122.8 53.1175 121.638 52.6104C120.487 52.0908 119.51 51.3734 118.706 50.458C117.902 49.5303 117.29 48.4479 116.869 47.2109C116.449 45.974 116.238 44.6318 116.238 43.1846ZM120.71 42.7578V43.1846C120.71 44.0876 120.803 44.9411 120.988 45.7451C121.174 46.5492 121.465 47.2542 121.86 47.8604C122.256 48.4665 122.763 48.9427 123.382 49.2891C124 49.6354 124.736 49.8086 125.59 49.8086C126.419 49.8086 127.136 49.6354 127.742 49.2891C128.361 48.9427 128.868 48.4665 129.264 47.8604C129.66 47.2542 129.95 46.5492 130.136 45.7451C130.334 44.9411 130.433 44.0876 130.433 43.1846V42.7578C130.433 41.8672 130.334 41.026 130.136 40.2344C129.95 39.4303 129.653 38.7191 129.245 38.1006C128.849 37.4821 128.342 36.9997 127.724 36.6533C127.118 36.2946 126.394 36.1152 125.553 36.1152C124.712 36.1152 123.982 36.2946 123.363 36.6533C122.757 36.9997 122.256 37.4821 121.86 38.1006C121.465 38.7191 121.174 39.4303 120.988 40.2344C120.803 41.026 120.71 41.8672 120.71 42.7578ZM143.124 37.0059V53H138.652V32.9238H142.864L143.124 37.0059ZM142.4 42.2197L140.879 42.2012C140.879 40.8158 141.052 39.5355 141.398 38.3604C141.745 37.1852 142.252 36.1647 142.92 35.2988C143.588 34.4206 144.417 33.7464 145.406 33.2764C146.408 32.7939 147.565 32.5527 148.876 32.5527C149.791 32.5527 150.626 32.6888 151.381 32.9609C152.148 33.2207 152.81 33.6351 153.366 34.2041C153.935 34.7731 154.368 35.5029 154.665 36.3936C154.974 37.2842 155.129 38.3604 155.129 39.6221V53H150.657V40.0117C150.657 39.0345 150.509 38.2676 150.212 37.7109C149.927 37.1543 149.513 36.7585 148.969 36.5234C148.437 36.276 147.8 36.1523 147.058 36.1523C146.216 36.1523 145.499 36.3132 144.905 36.6348C144.324 36.9564 143.848 37.3955 143.477 37.9521C143.105 38.5088 142.833 39.152 142.66 39.8818C142.487 40.6117 142.4 41.391 142.4 42.2197ZM154.851 41.0322L152.754 41.4961C152.754 40.2839 152.921 39.1396 153.255 38.0635C153.601 36.9749 154.102 36.0225 154.758 35.2061C155.426 34.3773 156.248 33.7279 157.226 33.2578C158.203 32.7878 159.322 32.5527 160.584 32.5527C161.611 32.5527 162.526 32.695 163.33 32.9795C164.146 33.2516 164.839 33.6846 165.408 34.2783C165.977 34.8721 166.41 35.6452 166.707 36.5977C167.004 37.5378 167.152 38.6758 167.152 40.0117V53H162.662V39.9932C162.662 38.9788 162.514 38.1934 162.217 37.6367C161.932 37.0801 161.524 36.6966 160.992 36.4863C160.46 36.2637 159.823 36.1523 159.081 36.1523C158.388 36.1523 157.776 36.2822 157.244 36.542C156.725 36.7894 156.285 37.1419 155.927 37.5996C155.568 38.0449 155.296 38.5583 155.11 39.1396C154.937 39.721 154.851 40.3519 154.851 41.0322ZM180.604 53.3711C179.12 53.3711 177.778 53.1299 176.578 52.6475C175.391 52.1527 174.376 51.4661 173.535 50.5879C172.706 49.7096 172.069 48.6768 171.624 47.4893C171.179 46.3018 170.956 45.0215 170.956 43.6484V42.9062C170.956 41.3353 171.185 39.9128 171.643 38.6387C172.1 37.3646 172.737 36.276 173.554 35.373C174.37 34.4577 175.335 33.7588 176.448 33.2764C177.562 32.7939 178.768 32.5527 180.066 32.5527C181.501 32.5527 182.757 32.7939 183.833 33.2764C184.909 33.7588 185.8 34.4391 186.505 35.3174C187.222 36.1833 187.754 37.2161 188.101 38.416C188.459 39.6159 188.639 40.9395 188.639 42.3867V44.2979H173.127V41.0879H184.223V40.7354C184.198 39.9313 184.037 39.1768 183.74 38.4717C183.456 37.7666 183.017 37.1976 182.423 36.7646C181.829 36.3317 181.037 36.1152 180.048 36.1152C179.306 36.1152 178.644 36.276 178.062 36.5977C177.493 36.9069 177.017 37.3584 176.634 37.9521C176.25 38.5459 175.953 39.2633 175.743 40.1045C175.545 40.9333 175.446 41.8672 175.446 42.9062V43.6484C175.446 44.5267 175.564 45.3431 175.799 46.0977C176.046 46.8398 176.405 47.4893 176.875 48.0459C177.345 48.6025 177.914 49.0417 178.582 49.3633C179.25 49.6725 180.011 49.8271 180.864 49.8271C181.94 49.8271 182.899 49.6107 183.74 49.1777C184.581 48.7448 185.311 48.1325 185.93 47.3408L188.286 49.623C187.853 50.2539 187.29 50.86 186.598 51.4414C185.905 52.0104 185.058 52.4743 184.056 52.833C183.066 53.1917 181.916 53.3711 180.604 53.3711ZM210.793 32.9238V36.1895H199.475V32.9238H210.793ZM202.74 28.0068H207.212V47.4521C207.212 48.0706 207.299 48.5469 207.472 48.8809C207.657 49.2025 207.911 49.4189 208.232 49.5303C208.554 49.6416 208.931 49.6973 209.364 49.6973C209.674 49.6973 209.97 49.6787 210.255 49.6416C210.539 49.6045 210.768 49.5674 210.941 49.5303L210.96 52.9443C210.589 53.0557 210.156 53.1546 209.661 53.2412C209.179 53.3278 208.622 53.3711 207.991 53.3711C206.965 53.3711 206.055 53.1917 205.264 52.833C204.472 52.4619 203.854 51.862 203.408 51.0332C202.963 50.2044 202.74 49.1035 202.74 47.7305V28.0068ZM212.945 43.1846V42.7578C212.945 41.3105 213.156 39.9684 213.576 38.7314C213.997 37.4821 214.603 36.3997 215.395 35.4844C216.199 34.5566 217.176 33.8392 218.326 33.332C219.489 32.8125 220.8 32.5527 222.26 32.5527C223.732 32.5527 225.043 32.8125 226.193 33.332C227.356 33.8392 228.34 34.5566 229.144 35.4844C229.948 36.3997 230.56 37.4821 230.98 38.7314C231.401 39.9684 231.611 41.3105 231.611 42.7578V43.1846C231.611 44.6318 231.401 45.974 230.98 47.2109C230.56 48.4479 229.948 49.5303 229.144 50.458C228.34 51.3734 227.362 52.0908 226.212 52.6104C225.062 53.1175 223.757 53.3711 222.297 53.3711C220.825 53.3711 219.507 53.1175 218.345 52.6104C217.194 52.0908 216.217 51.3734 215.413 50.458C214.609 49.5303 213.997 48.4479 213.576 47.2109C213.156 45.974 212.945 44.6318 212.945 43.1846ZM217.417 42.7578V43.1846C217.417 44.0876 217.51 44.9411 217.695 45.7451C217.881 46.5492 218.172 47.2542 218.567 47.8604C218.963 48.4665 219.47 48.9427 220.089 49.2891C220.707 49.6354 221.443 49.8086 222.297 49.8086C223.126 49.8086 223.843 49.6354 224.449 49.2891C225.068 48.9427 225.575 48.4665 225.971 47.8604C226.367 47.2542 226.657 46.5492 226.843 45.7451C227.041 44.9411 227.14 44.0876 227.14 43.1846V42.7578C227.14 41.8672 227.041 41.026 226.843 40.2344C226.657 39.4303 226.36 38.7191 225.952 38.1006C225.556 37.4821 225.049 36.9997 224.431 36.6533C223.825 36.2946 223.101 36.1152 222.26 36.1152C221.419 36.1152 220.689 36.2946 220.07 36.6533C219.464 36.9997 218.963 37.4821 218.567 38.1006C218.172 38.7191 217.881 39.4303 217.695 40.2344C217.51 41.026 217.417 41.8672 217.417 42.7578ZM255.788 29.584L247.717 53H242.837L253.005 25.9844H256.122L255.788 29.584ZM262.542 53L254.452 29.584L254.1 25.9844H257.235L267.44 53H262.542ZM262.152 42.9805V46.6729H247.457V42.9805H262.152ZM281.876 48.2686V32.9238H286.366V53H282.136L281.876 48.2686ZM282.507 44.0938L284.01 44.0566C284.01 45.4049 283.861 46.6481 283.564 47.7861C283.268 48.9118 282.81 49.8952 282.191 50.7363C281.573 51.5651 280.781 52.2145 279.816 52.6846C278.852 53.1423 277.695 53.3711 276.347 53.3711C275.369 53.3711 274.473 53.2288 273.656 52.9443C272.84 52.6598 272.135 52.2207 271.541 51.627C270.96 51.0332 270.508 50.2601 270.187 49.3076C269.865 48.3551 269.704 47.2171 269.704 45.8936V32.9238H274.176V45.9307C274.176 46.6605 274.262 47.2728 274.436 47.7676C274.609 48.25 274.844 48.6396 275.141 48.9365C275.438 49.2334 275.784 49.4437 276.18 49.5674C276.576 49.6911 276.996 49.7529 277.441 49.7529C278.715 49.7529 279.717 49.5055 280.447 49.0107C281.189 48.5036 281.715 47.8232 282.024 46.9697C282.346 46.1162 282.507 45.1576 282.507 44.0938ZM300.152 32.9238V36.1895H288.834V32.9238H300.152ZM292.1 28.0068H296.571V47.4521C296.571 48.0706 296.658 48.5469 296.831 48.8809C297.017 49.2025 297.27 49.4189 297.592 49.5303C297.913 49.6416 298.291 49.6973 298.724 49.6973C299.033 49.6973 299.33 49.6787 299.614 49.6416C299.899 49.6045 300.128 49.5674 300.301 49.5303L300.319 52.9443C299.948 53.0557 299.515 53.1546 299.021 53.2412C298.538 53.3278 297.981 53.3711 297.351 53.3711C296.324 53.3711 295.415 53.1917 294.623 52.833C293.831 52.4619 293.213 51.862 292.768 51.0332C292.322 50.2044 292.1 49.1035 292.1 47.7305V28.0068ZM302.305 43.1846V42.7578C302.305 41.3105 302.515 39.9684 302.936 38.7314C303.356 37.4821 303.962 36.3997 304.754 35.4844C305.558 34.5566 306.535 33.8392 307.686 33.332C308.848 32.8125 310.16 32.5527 311.619 32.5527C313.091 32.5527 314.402 32.8125 315.553 33.332C316.715 33.8392 317.699 34.5566 318.503 35.4844C319.307 36.3997 319.919 37.4821 320.34 38.7314C320.76 39.9684 320.971 41.3105 320.971 42.7578V43.1846C320.971 44.6318 320.76 45.974 320.34 47.2109C319.919 48.4479 319.307 49.5303 318.503 50.458C317.699 51.3734 316.722 52.0908 315.571 52.6104C314.421 53.1175 313.116 53.3711 311.656 53.3711C310.184 53.3711 308.867 53.1175 307.704 52.6104C306.554 52.0908 305.576 51.3734 304.772 50.458C303.968 49.5303 303.356 48.4479 302.936 47.2109C302.515 45.974 302.305 44.6318 302.305 43.1846ZM306.776 42.7578V43.1846C306.776 44.0876 306.869 44.9411 307.055 45.7451C307.24 46.5492 307.531 47.2542 307.927 47.8604C308.323 48.4665 308.83 48.9427 309.448 49.2891C310.067 49.6354 310.803 49.8086 311.656 49.8086C312.485 49.8086 313.202 49.6354 313.809 49.2891C314.427 48.9427 314.934 48.4665 315.33 47.8604C315.726 47.2542 316.017 46.5492 316.202 45.7451C316.4 44.9411 316.499 44.0876 316.499 43.1846V42.7578C316.499 41.8672 316.4 41.026 316.202 40.2344C316.017 39.4303 315.72 38.7191 315.312 38.1006C314.916 37.4821 314.409 36.9997 313.79 36.6533C313.184 36.2946 312.46 36.1152 311.619 36.1152C310.778 36.1152 310.048 36.2946 309.43 36.6533C308.824 36.9997 308.323 37.4821 307.927 38.1006C307.531 38.7191 307.24 39.4303 307.055 40.2344C306.869 41.026 306.776 41.8672 306.776 42.7578ZM329.19 37.0059V53H324.719V32.9238H328.931L329.19 37.0059ZM328.467 42.2197L326.945 42.2012C326.945 40.8158 327.118 39.5355 327.465 38.3604C327.811 37.1852 328.318 36.1647 328.986 35.2988C329.654 34.4206 330.483 33.7464 331.473 33.2764C332.475 32.7939 333.631 32.5527 334.942 32.5527C335.858 32.5527 336.693 32.6888 337.447 32.9609C338.214 33.2207 338.876 33.6351 339.433 34.2041C340.002 34.7731 340.435 35.5029 340.731 36.3936C341.041 37.2842 341.195 38.3604 341.195 39.6221V53H336.724V40.0117C336.724 39.0345 336.575 38.2676 336.278 37.7109C335.994 37.1543 335.579 36.7585 335.035 36.5234C334.503 36.276 333.866 36.1523 333.124 36.1523C332.283 36.1523 331.565 36.3132 330.972 36.6348C330.39 36.9564 329.914 37.3955 329.543 37.9521C329.172 38.5088 328.9 39.152 328.727 39.8818C328.553 40.6117 328.467 41.391 328.467 42.2197ZM340.917 41.0322L338.82 41.4961C338.82 40.2839 338.987 39.1396 339.321 38.0635C339.668 36.9749 340.169 36.0225 340.824 35.2061C341.492 34.3773 342.315 33.7279 343.292 33.2578C344.269 32.7878 345.389 32.5527 346.65 32.5527C347.677 32.5527 348.592 32.695 349.396 32.9795C350.213 33.2516 350.906 33.6846 351.475 34.2783C352.044 34.8721 352.477 35.6452 352.773 36.5977C353.07 37.5378 353.219 38.6758 353.219 40.0117V53H348.729V39.9932C348.729 38.9788 348.58 38.1934 348.283 37.6367C347.999 37.0801 347.59 36.6966 347.059 36.4863C346.527 36.2637 345.89 36.1523 345.147 36.1523C344.455 36.1523 343.842 36.2822 343.311 36.542C342.791 36.7894 342.352 37.1419 341.993 37.5996C341.634 38.0449 341.362 38.5583 341.177 39.1396C341.004 39.721 340.917 40.3519 340.917 41.0322ZM369.139 48.9736V39.3994C369.139 38.682 369.009 38.0635 368.749 37.5439C368.489 37.0244 368.093 36.6224 367.562 36.3379C367.042 36.0534 366.386 35.9111 365.595 35.9111C364.865 35.9111 364.234 36.0348 363.702 36.2822C363.17 36.5296 362.756 36.8636 362.459 37.2842C362.162 37.7048 362.014 38.181 362.014 38.7129H357.561C357.561 37.9212 357.752 37.1543 358.136 36.4121C358.519 35.6699 359.076 35.0081 359.806 34.4268C360.535 33.8454 361.408 33.3877 362.422 33.0537C363.436 32.7197 364.574 32.5527 365.836 32.5527C367.345 32.5527 368.681 32.8063 369.844 33.3135C371.019 33.8206 371.94 34.5876 372.608 35.6143C373.289 36.6286 373.629 37.9027 373.629 39.4365V48.3613C373.629 49.2767 373.691 50.0993 373.814 50.8291C373.951 51.5465 374.142 52.1712 374.39 52.7031V53H369.807C369.596 52.5176 369.429 51.9053 369.306 51.1631C369.194 50.4085 369.139 49.6787 369.139 48.9736ZM369.788 40.791L369.825 43.5557H366.615C365.786 43.5557 365.057 43.6361 364.426 43.7969C363.795 43.9453 363.269 44.168 362.849 44.4648C362.428 44.7617 362.113 45.1204 361.902 45.541C361.692 45.9616 361.587 46.4378 361.587 46.9697C361.587 47.5016 361.711 47.9902 361.958 48.4355C362.205 48.8685 362.564 49.2087 363.034 49.4561C363.517 49.7035 364.098 49.8271 364.778 49.8271C365.694 49.8271 366.492 49.6416 367.172 49.2705C367.865 48.887 368.409 48.4232 368.805 47.8789C369.201 47.3223 369.411 46.7965 369.436 46.3018L370.883 48.2871C370.734 48.7943 370.481 49.3385 370.122 49.9199C369.763 50.5013 369.293 51.0579 368.712 51.5898C368.143 52.1094 367.456 52.5361 366.652 52.8701C365.861 53.2041 364.945 53.3711 363.906 53.3711C362.595 53.3711 361.426 53.1113 360.399 52.5918C359.373 52.0599 358.569 51.3486 357.987 50.458C357.406 49.555 357.115 48.5345 357.115 47.3965C357.115 46.3327 357.313 45.3926 357.709 44.5762C358.117 43.7474 358.711 43.0547 359.49 42.498C360.282 41.9414 361.247 41.5208 362.385 41.2363C363.523 40.9395 364.822 40.791 366.281 40.791H369.788ZM387.508 32.9238V36.1895H376.189V32.9238H387.508ZM379.455 28.0068H383.927V47.4521C383.927 48.0706 384.013 48.5469 384.187 48.8809C384.372 49.2025 384.626 49.4189 384.947 49.5303C385.269 49.6416 385.646 49.6973 386.079 49.6973C386.388 49.6973 386.685 49.6787 386.97 49.6416C387.254 49.6045 387.483 49.5674 387.656 49.5303L387.675 52.9443C387.304 53.0557 386.871 53.1546 386.376 53.2412C385.894 53.3278 385.337 53.3711 384.706 53.3711C383.679 53.3711 382.77 53.1917 381.979 52.833C381.187 52.4619 380.568 51.862 380.123 51.0332C379.678 50.2044 379.455 49.1035 379.455 47.7305V28.0068ZM395.746 32.9238V53H391.256V32.9238H395.746ZM390.959 27.6543C390.959 26.974 391.182 26.4111 391.627 25.9658C392.085 25.5081 392.715 25.2793 393.52 25.2793C394.311 25.2793 394.936 25.5081 395.394 25.9658C395.851 26.4111 396.08 26.974 396.08 27.6543C396.08 28.3223 395.851 28.8789 395.394 29.3242C394.936 29.7695 394.311 29.9922 393.52 29.9922C392.715 29.9922 392.085 29.7695 391.627 29.3242C391.182 28.8789 390.959 28.3223 390.959 27.6543ZM399.791 43.1846V42.7578C399.791 41.3105 400.001 39.9684 400.422 38.7314C400.842 37.4821 401.449 36.3997 402.24 35.4844C403.044 34.5566 404.021 33.8392 405.172 33.332C406.335 32.8125 407.646 32.5527 409.105 32.5527C410.577 32.5527 411.889 32.8125 413.039 33.332C414.202 33.8392 415.185 34.5566 415.989 35.4844C416.793 36.3997 417.406 37.4821 417.826 38.7314C418.247 39.9684 418.457 41.3105 418.457 42.7578V43.1846C418.457 44.6318 418.247 45.974 417.826 47.2109C417.406 48.4479 416.793 49.5303 415.989 50.458C415.185 51.3734 414.208 52.0908 413.058 52.6104C411.907 53.1175 410.602 53.3711 409.143 53.3711C407.671 53.3711 406.353 53.1175 405.19 52.6104C404.04 52.0908 403.063 51.3734 402.259 50.458C401.455 49.5303 400.842 48.4479 400.422 47.2109C400.001 45.974 399.791 44.6318 399.791 43.1846ZM404.263 42.7578V43.1846C404.263 44.0876 404.355 44.9411 404.541 45.7451C404.727 46.5492 405.017 47.2542 405.413 47.8604C405.809 48.4665 406.316 48.9427 406.935 49.2891C407.553 49.6354 408.289 49.8086 409.143 49.8086C409.971 49.8086 410.689 49.6354 411.295 49.2891C411.913 48.9427 412.421 48.4665 412.816 47.8604C413.212 47.2542 413.503 46.5492 413.688 45.7451C413.886 44.9411 413.985 44.0876 413.985 43.1846V42.7578C413.985 41.8672 413.886 41.026 413.688 40.2344C413.503 39.4303 413.206 38.7191 412.798 38.1006C412.402 37.4821 411.895 36.9997 411.276 36.6533C410.67 36.2946 409.947 36.1152 409.105 36.1152C408.264 36.1152 407.535 36.2946 406.916 36.6533C406.31 36.9997 405.809 37.4821 405.413 38.1006C405.017 38.7191 404.727 39.4303 404.541 40.2344C404.355 41.026 404.263 41.8672 404.263 42.7578ZM426.64 37.21V53H422.168V32.9238H426.38L426.64 37.21ZM425.842 42.2197L424.395 42.2012C424.407 40.7786 424.605 39.4736 424.988 38.2861C425.384 37.0986 425.928 36.0781 426.621 35.2246C427.326 34.3711 428.167 33.7155 429.145 33.2578C430.122 32.7878 431.21 32.5527 432.41 32.5527C433.375 32.5527 434.247 32.6888 435.026 32.9609C435.818 33.2207 436.492 33.6475 437.049 34.2412C437.618 34.835 438.051 35.6081 438.348 36.5605C438.645 37.5007 438.793 38.6572 438.793 40.0303V53H434.303V40.0117C434.303 39.0469 434.16 38.2861 433.876 37.7295C433.604 37.1605 433.202 36.7585 432.67 36.5234C432.15 36.276 431.501 36.1523 430.722 36.1523C429.955 36.1523 429.268 36.3132 428.662 36.6348C428.056 36.9564 427.543 37.3955 427.122 37.9521C426.714 38.5088 426.398 39.152 426.176 39.8818C425.953 40.6117 425.842 41.391 425.842 42.2197ZM462.691 49.3076V53H443.933V49.3076H462.691ZM462.265 28.8604L445.658 53H442.541V50.0498L459.203 25.9844H462.265V28.8604ZM460.539 25.9844V29.6953H442.652V25.9844H460.539Z" fill="#272727"/>
<path d="M41.2461 88.6201V90H34.8477V88.6201H41.2461ZM35.1816 77.2031V90H33.4854V77.2031H35.1816ZM46.8887 90.1758C46.2266 90.1758 45.626 90.0645 45.0869 89.8418C44.5537 89.6133 44.0938 89.2939 43.707 88.8838C43.3262 88.4736 43.0332 87.9873 42.8281 87.4248C42.623 86.8623 42.5205 86.2471 42.5205 85.5791V85.21C42.5205 84.4365 42.6348 83.748 42.8633 83.1445C43.0918 82.5352 43.4023 82.0195 43.7949 81.5977C44.1875 81.1758 44.6328 80.8564 45.1309 80.6396C45.6289 80.4229 46.1445 80.3145 46.6777 80.3145C47.3574 80.3145 47.9434 80.4316 48.4355 80.666C48.9336 80.9004 49.3408 81.2285 49.6572 81.6504C49.9736 82.0664 50.208 82.5586 50.3604 83.127C50.5127 83.6895 50.5889 84.3047 50.5889 84.9727V85.7021H43.4873V84.375H48.9629V84.252C48.9395 83.8301 48.8516 83.4199 48.6992 83.0215C48.5527 82.623 48.3184 82.2949 47.9961 82.0371C47.6738 81.7793 47.2344 81.6504 46.6777 81.6504C46.3086 81.6504 45.9688 81.7295 45.6582 81.8877C45.3477 82.04 45.0811 82.2686 44.8584 82.5732C44.6357 82.8779 44.4629 83.25 44.3398 83.6895C44.2168 84.1289 44.1553 84.6357 44.1553 85.21V85.5791C44.1553 86.0303 44.2168 86.4551 44.3398 86.8535C44.4688 87.2461 44.6533 87.5918 44.8936 87.8906C45.1396 88.1895 45.4355 88.4238 45.7812 88.5938C46.1328 88.7637 46.5312 88.8486 46.9766 88.8486C47.5508 88.8486 48.0371 88.7314 48.4355 88.4971C48.834 88.2627 49.1826 87.9492 49.4814 87.5566L50.4658 88.3389C50.2607 88.6494 50 88.9453 49.6836 89.2266C49.3672 89.5078 48.9775 89.7363 48.5146 89.9121C48.0576 90.0879 47.5156 90.1758 46.8887 90.1758ZM56.4688 80.4902V81.7383H51.3271V80.4902H56.4688ZM53.0674 78.1787H54.6934V87.6445C54.6934 87.9668 54.7432 88.21 54.8428 88.374C54.9424 88.5381 55.0713 88.6465 55.2295 88.6992C55.3877 88.752 55.5576 88.7783 55.7393 88.7783C55.874 88.7783 56.0146 88.7666 56.1611 88.7432C56.3135 88.7139 56.4277 88.6904 56.5039 88.6729L56.5127 90C56.3838 90.041 56.2139 90.0791 56.0029 90.1143C55.7979 90.1553 55.5488 90.1758 55.2559 90.1758C54.8574 90.1758 54.4912 90.0967 54.1572 89.9385C53.8232 89.7803 53.5566 89.5166 53.3574 89.1475C53.1641 88.7725 53.0674 88.2686 53.0674 87.6357V78.1787ZM60.0195 76.5V77.625C60.0195 77.9766 59.958 78.3486 59.835 78.7412C59.7178 79.1279 59.5449 79.5029 59.3164 79.8662C59.0879 80.2236 58.8125 80.5371 58.4902 80.8066L57.5586 80.165C57.834 79.7783 58.042 79.3828 58.1826 78.9785C58.3291 78.5684 58.4023 78.126 58.4023 77.6514V76.5H60.0195ZM66.5322 87.4775C66.5322 87.2432 66.4795 87.0264 66.374 86.8271C66.2744 86.6221 66.0664 86.4375 65.75 86.2734C65.4395 86.1035 64.9707 85.957 64.3438 85.834C63.8164 85.7227 63.3389 85.5908 62.9111 85.4385C62.4893 85.2861 62.1289 85.1016 61.8301 84.8848C61.5371 84.668 61.3115 84.4131 61.1533 84.1201C60.9951 83.8271 60.916 83.4844 60.916 83.0918C60.916 82.7168 60.998 82.3623 61.1621 82.0283C61.332 81.6943 61.5693 81.3984 61.874 81.1406C62.1846 80.8828 62.5566 80.6807 62.9902 80.5342C63.4238 80.3877 63.9072 80.3145 64.4404 80.3145C65.2021 80.3145 65.8525 80.4492 66.3916 80.7188C66.9307 80.9883 67.3438 81.3486 67.6309 81.7998C67.918 82.2451 68.0615 82.7402 68.0615 83.2852H66.4355C66.4355 83.0215 66.3564 82.7666 66.1982 82.5205C66.0459 82.2686 65.8203 82.0605 65.5215 81.8965C65.2285 81.7324 64.8682 81.6504 64.4404 81.6504C63.9893 81.6504 63.623 81.7207 63.3418 81.8613C63.0664 81.9961 62.8643 82.1689 62.7354 82.3799C62.6123 82.5908 62.5508 82.8135 62.5508 83.0479C62.5508 83.2236 62.5801 83.3818 62.6387 83.5225C62.7031 83.6572 62.8145 83.7832 62.9727 83.9004C63.1309 84.0117 63.3535 84.1172 63.6406 84.2168C63.9277 84.3164 64.2939 84.416 64.7393 84.5156C65.5186 84.6914 66.1602 84.9023 66.6641 85.1484C67.168 85.3945 67.543 85.6963 67.7891 86.0537C68.0352 86.4111 68.1582 86.8447 68.1582 87.3545C68.1582 87.7705 68.0703 88.1514 67.8945 88.4971C67.7246 88.8428 67.4756 89.1416 67.1475 89.3936C66.8252 89.6396 66.4385 89.833 65.9873 89.9736C65.542 90.1084 65.041 90.1758 64.4844 90.1758C63.6465 90.1758 62.9375 90.0264 62.3574 89.7275C61.7773 89.4287 61.3379 89.042 61.0391 88.5674C60.7402 88.0928 60.5908 87.5918 60.5908 87.0645H62.2256C62.249 87.5098 62.3779 87.8643 62.6123 88.1279C62.8467 88.3857 63.1338 88.5703 63.4736 88.6816C63.8135 88.7871 64.1504 88.8398 64.4844 88.8398C64.9297 88.8398 65.3018 88.7812 65.6006 88.6641C65.9053 88.5469 66.1367 88.3857 66.2949 88.1807C66.4531 87.9756 66.5322 87.7412 66.5322 87.4775ZM83.1348 88.6201V90H76.3584V88.6201H83.1348ZM76.7012 77.2031V90H75.0049V77.2031H76.7012ZM82.2383 82.7051V84.085H76.3584V82.7051H82.2383ZM83.0469 77.2031V78.5918H76.3584V77.2031H83.0469ZM86.0879 80.4902L88.1709 83.9531L90.2803 80.4902H92.1875L89.0762 85.1836L92.2842 90H90.4033L88.2061 86.4316L86.0088 90H84.1191L87.3184 85.1836L84.2158 80.4902H86.0879ZM95.5449 82.3184V93.6562H93.9102V80.4902H95.4043L95.5449 82.3184ZM101.952 85.166V85.3506C101.952 86.042 101.87 86.6836 101.706 87.2754C101.542 87.8613 101.302 88.3711 100.985 88.8047C100.675 89.2383 100.291 89.5752 99.834 89.8154C99.377 90.0557 98.8525 90.1758 98.2607 90.1758C97.6572 90.1758 97.124 90.0762 96.6611 89.877C96.1982 89.6777 95.8057 89.3877 95.4834 89.0068C95.1611 88.626 94.9033 88.1689 94.71 87.6357C94.5225 87.1025 94.3936 86.502 94.3232 85.834V84.8496C94.3936 84.1465 94.5254 83.5166 94.7188 82.96C94.9121 82.4033 95.167 81.9287 95.4834 81.5361C95.8057 81.1377 96.1953 80.8359 96.6523 80.6309C97.1094 80.4199 97.6367 80.3145 98.2344 80.3145C98.832 80.3145 99.3623 80.4316 99.8252 80.666C100.288 80.8945 100.678 81.2227 100.994 81.6504C101.311 82.0781 101.548 82.5908 101.706 83.1885C101.87 83.7803 101.952 84.4395 101.952 85.166ZM100.317 85.3506V85.166C100.317 84.6914 100.268 84.2461 100.168 83.8301C100.068 83.4082 99.9131 83.0391 99.7021 82.7227C99.4971 82.4004 99.2334 82.1484 98.9111 81.9668C98.5889 81.7793 98.2051 81.6855 97.7598 81.6855C97.3496 81.6855 96.9922 81.7559 96.6875 81.8965C96.3887 82.0371 96.1338 82.2275 95.9229 82.4678C95.7119 82.7021 95.5391 82.9717 95.4043 83.2764C95.2754 83.5752 95.1787 83.8857 95.1143 84.208V86.4844C95.2314 86.8945 95.3955 87.2812 95.6064 87.6445C95.8174 88.002 96.0986 88.292 96.4502 88.5146C96.8018 88.7314 97.2441 88.8398 97.7773 88.8398C98.2168 88.8398 98.5947 88.749 98.9111 88.5674C99.2334 88.3799 99.4971 88.125 99.7021 87.8027C99.9131 87.4805 100.068 87.1113 100.168 86.6953C100.268 86.2734 100.317 85.8252 100.317 85.3506ZM105.793 76.5V90H104.158V76.5H105.793ZM107.973 85.3506V85.1484C107.973 84.4629 108.072 83.8271 108.271 83.2412C108.471 82.6494 108.758 82.1367 109.133 81.7031C109.508 81.2637 109.962 80.9238 110.495 80.6836C111.028 80.4375 111.626 80.3145 112.288 80.3145C112.956 80.3145 113.557 80.4375 114.09 80.6836C114.629 80.9238 115.086 81.2637 115.461 81.7031C115.842 82.1367 116.132 82.6494 116.331 83.2412C116.53 83.8271 116.63 84.4629 116.63 85.1484V85.3506C116.63 86.0361 116.53 86.6719 116.331 87.2578C116.132 87.8438 115.842 88.3564 115.461 88.7959C115.086 89.2295 114.632 89.5693 114.099 89.8154C113.571 90.0557 112.974 90.1758 112.306 90.1758C111.638 90.1758 111.037 90.0557 110.504 89.8154C109.971 89.5693 109.514 89.2295 109.133 88.7959C108.758 88.3564 108.471 87.8438 108.271 87.2578C108.072 86.6719 107.973 86.0361 107.973 85.3506ZM109.599 85.1484V85.3506C109.599 85.8252 109.654 86.2734 109.766 86.6953C109.877 87.1113 110.044 87.4805 110.267 87.8027C110.495 88.125 110.779 88.3799 111.119 88.5674C111.459 88.749 111.854 88.8398 112.306 88.8398C112.751 88.8398 113.141 88.749 113.475 88.5674C113.814 88.3799 114.096 88.125 114.318 87.8027C114.541 87.4805 114.708 87.1113 114.819 86.6953C114.937 86.2734 114.995 85.8252 114.995 85.3506V85.1484C114.995 84.6797 114.937 84.2373 114.819 83.8213C114.708 83.3994 114.538 83.0273 114.31 82.7051C114.087 82.377 113.806 82.1191 113.466 81.9316C113.132 81.7441 112.739 81.6504 112.288 81.6504C111.843 81.6504 111.45 81.7441 111.11 81.9316C110.776 82.1191 110.495 82.377 110.267 82.7051C110.044 83.0273 109.877 83.3994 109.766 83.8213C109.654 84.2373 109.599 84.6797 109.599 85.1484ZM120.295 81.9844V90H118.669V80.4902H120.251L120.295 81.9844ZM123.266 80.4375L123.257 81.9492C123.122 81.9199 122.993 81.9023 122.87 81.8965C122.753 81.8848 122.618 81.8789 122.466 81.8789C122.091 81.8789 121.76 81.9375 121.473 82.0547C121.186 82.1719 120.942 82.3359 120.743 82.5469C120.544 82.7578 120.386 83.0098 120.269 83.3027C120.157 83.5898 120.084 83.9062 120.049 84.252L119.592 84.5156C119.592 83.9414 119.647 83.4023 119.759 82.8984C119.876 82.3945 120.055 81.9492 120.295 81.5625C120.535 81.1699 120.84 80.8652 121.209 80.6484C121.584 80.4258 122.029 80.3145 122.545 80.3145C122.662 80.3145 122.797 80.3291 122.949 80.3584C123.102 80.3818 123.207 80.4082 123.266 80.4375ZM128.539 90.1758C127.877 90.1758 127.276 90.0645 126.737 89.8418C126.204 89.6133 125.744 89.2939 125.357 88.8838C124.977 88.4736 124.684 87.9873 124.479 87.4248C124.273 86.8623 124.171 86.2471 124.171 85.5791V85.21C124.171 84.4365 124.285 83.748 124.514 83.1445C124.742 82.5352 125.053 82.0195 125.445 81.5977C125.838 81.1758 126.283 80.8564 126.781 80.6396C127.279 80.4229 127.795 80.3145 128.328 80.3145C129.008 80.3145 129.594 80.4316 130.086 80.666C130.584 80.9004 130.991 81.2285 131.308 81.6504C131.624 82.0664 131.858 82.5586 132.011 83.127C132.163 83.6895 132.239 84.3047 132.239 84.9727V85.7021H125.138V84.375H130.613V84.252C130.59 83.8301 130.502 83.4199 130.35 83.0215C130.203 82.623 129.969 82.2949 129.646 82.0371C129.324 81.7793 128.885 81.6504 128.328 81.6504C127.959 81.6504 127.619 81.7295 127.309 81.8877C126.998 82.04 126.731 82.2686 126.509 82.5732C126.286 82.8779 126.113 83.25 125.99 83.6895C125.867 84.1289 125.806 84.6357 125.806 85.21V85.5791C125.806 86.0303 125.867 86.4551 125.99 86.8535C126.119 87.2461 126.304 87.5918 126.544 87.8906C126.79 88.1895 127.086 88.4238 127.432 88.5938C127.783 88.7637 128.182 88.8486 128.627 88.8486C129.201 88.8486 129.688 88.7314 130.086 88.4971C130.484 88.2627 130.833 87.9492 131.132 87.5566L132.116 88.3389C131.911 88.6494 131.65 88.9453 131.334 89.2266C131.018 89.5078 130.628 89.7363 130.165 89.9121C129.708 90.0879 129.166 90.1758 128.539 90.1758ZM143.586 78.3369L139.35 90H137.618L142.496 77.2031H143.612L143.586 78.3369ZM147.137 90L142.892 78.3369L142.865 77.2031H143.981L148.877 90H147.137ZM146.917 85.2627V86.6514H139.728V85.2627H146.917ZM151.971 82.5205V90H150.345V80.4902H151.883L151.971 82.5205ZM151.584 84.8848L150.907 84.8584C150.913 84.208 151.01 83.6074 151.197 83.0566C151.385 82.5 151.648 82.0166 151.988 81.6064C152.328 81.1963 152.732 80.8799 153.201 80.6572C153.676 80.4287 154.2 80.3145 154.774 80.3145C155.243 80.3145 155.665 80.3789 156.04 80.5078C156.415 80.6309 156.734 80.8301 156.998 81.1055C157.268 81.3809 157.473 81.7383 157.613 82.1777C157.754 82.6113 157.824 83.1416 157.824 83.7686V90H156.189V83.751C156.189 83.2529 156.116 82.8545 155.97 82.5557C155.823 82.251 155.609 82.0312 155.328 81.8965C155.047 81.7559 154.701 81.6855 154.291 81.6855C153.887 81.6855 153.518 81.7705 153.184 81.9404C152.855 82.1104 152.571 82.3447 152.331 82.6436C152.097 82.9424 151.912 83.2852 151.777 83.6719C151.648 84.0527 151.584 84.457 151.584 84.8848ZM166.288 88.1543V76.5H167.923V90H166.429L166.288 88.1543ZM159.89 85.3506V85.166C159.89 84.4395 159.978 83.7803 160.153 83.1885C160.335 82.5908 160.59 82.0781 160.918 81.6504C161.252 81.2227 161.647 80.8945 162.104 80.666C162.567 80.4316 163.083 80.3145 163.651 80.3145C164.249 80.3145 164.771 80.4199 165.216 80.6309C165.667 80.8359 166.048 81.1377 166.358 81.5361C166.675 81.9287 166.924 82.4033 167.105 82.96C167.287 83.5166 167.413 84.1465 167.483 84.8496V85.6582C167.419 86.3555 167.293 86.9824 167.105 87.5391C166.924 88.0957 166.675 88.5703 166.358 88.9629C166.048 89.3555 165.667 89.6572 165.216 89.8682C164.765 90.0732 164.237 90.1758 163.634 90.1758C163.077 90.1758 162.567 90.0557 162.104 89.8154C161.647 89.5752 161.252 89.2383 160.918 88.8047C160.59 88.3711 160.335 87.8613 160.153 87.2754C159.978 86.6836 159.89 86.042 159.89 85.3506ZM161.524 85.166V85.3506C161.524 85.8252 161.571 86.2705 161.665 86.6865C161.765 87.1025 161.917 87.4688 162.122 87.7852C162.327 88.1016 162.588 88.3506 162.904 88.5322C163.221 88.708 163.599 88.7959 164.038 88.7959C164.577 88.7959 165.02 88.6816 165.365 88.4531C165.717 88.2246 165.998 87.9229 166.209 87.5479C166.42 87.1729 166.584 86.7656 166.701 86.3262V84.208C166.631 83.8857 166.528 83.5752 166.394 83.2764C166.265 82.9717 166.095 82.7021 165.884 82.4678C165.679 82.2275 165.424 82.0371 165.119 81.8965C164.82 81.7559 164.466 81.6855 164.056 81.6855C163.61 81.6855 163.227 81.7793 162.904 81.9668C162.588 82.1484 162.327 82.4004 162.122 82.7227C161.917 83.0391 161.765 83.4082 161.665 83.8301C161.571 84.2461 161.524 84.6914 161.524 85.166ZM181.985 86.7656C181.985 86.4668 181.938 86.2031 181.845 85.9746C181.757 85.7402 181.599 85.5293 181.37 85.3418C181.147 85.1543 180.837 84.9756 180.438 84.8057C180.046 84.6357 179.548 84.4629 178.944 84.2871C178.312 84.0996 177.74 83.8916 177.23 83.6631C176.721 83.4287 176.284 83.1621 175.921 82.8633C175.558 82.5645 175.279 82.2217 175.086 81.835C174.893 81.4482 174.796 81.0059 174.796 80.5078C174.796 80.0098 174.898 79.5498 175.104 79.1279C175.309 78.7061 175.602 78.3398 175.982 78.0293C176.369 77.7129 176.829 77.4668 177.362 77.291C177.896 77.1152 178.49 77.0273 179.146 77.0273C180.107 77.0273 180.922 77.2119 181.59 77.5811C182.264 77.9443 182.776 78.4219 183.128 79.0137C183.479 79.5996 183.655 80.2266 183.655 80.8945H181.968C181.968 80.4141 181.865 79.9893 181.66 79.6201C181.455 79.2451 181.145 78.9521 180.729 78.7412C180.312 78.5244 179.785 78.416 179.146 78.416C178.543 78.416 178.045 78.5068 177.652 78.6885C177.26 78.8701 176.967 79.1162 176.773 79.4268C176.586 79.7373 176.492 80.0918 176.492 80.4902C176.492 80.7598 176.548 81.0059 176.659 81.2285C176.776 81.4453 176.955 81.6475 177.195 81.835C177.441 82.0225 177.752 82.1953 178.127 82.3535C178.508 82.5117 178.962 82.6641 179.489 82.8105C180.216 83.0156 180.843 83.2441 181.37 83.4961C181.897 83.748 182.331 84.0322 182.671 84.3486C183.017 84.6592 183.271 85.0137 183.436 85.4121C183.605 85.8047 183.69 86.25 183.69 86.748C183.69 87.2695 183.585 87.7412 183.374 88.1631C183.163 88.585 182.861 88.9453 182.469 89.2441C182.076 89.543 181.604 89.7744 181.054 89.9385C180.509 90.0967 179.899 90.1758 179.226 90.1758C178.634 90.1758 178.051 90.0938 177.477 89.9297C176.908 89.7656 176.39 89.5195 175.921 89.1914C175.458 88.8633 175.086 88.459 174.805 87.9785C174.529 87.4922 174.392 86.9297 174.392 86.291H176.079C176.079 86.7305 176.164 87.1084 176.334 87.4248C176.504 87.7354 176.735 87.9932 177.028 88.1982C177.327 88.4033 177.664 88.5557 178.039 88.6553C178.42 88.749 178.815 88.7959 179.226 88.7959C179.817 88.7959 180.318 88.7139 180.729 88.5498C181.139 88.3857 181.449 88.1514 181.66 87.8467C181.877 87.542 181.985 87.1816 181.985 86.7656ZM189.588 80.4902V81.7383H184.446V80.4902H189.588ZM186.187 78.1787H187.812V87.6445C187.812 87.9668 187.862 88.21 187.962 88.374C188.062 88.5381 188.19 88.6465 188.349 88.6992C188.507 88.752 188.677 88.7783 188.858 88.7783C188.993 88.7783 189.134 88.7666 189.28 88.7432C189.433 88.7139 189.547 88.6904 189.623 88.6729L189.632 90C189.503 90.041 189.333 90.0791 189.122 90.1143C188.917 90.1553 188.668 90.1758 188.375 90.1758C187.977 90.1758 187.61 90.0967 187.276 89.9385C186.942 89.7803 186.676 89.5166 186.477 89.1475C186.283 88.7725 186.187 88.2686 186.187 87.6357V78.1787ZM197.103 88.374V83.4785C197.103 83.1035 197.026 82.7783 196.874 82.5029C196.728 82.2217 196.505 82.0049 196.206 81.8525C195.907 81.7002 195.538 81.624 195.099 81.624C194.688 81.624 194.328 81.6943 194.018 81.835C193.713 81.9756 193.473 82.1602 193.297 82.3887C193.127 82.6172 193.042 82.8633 193.042 83.127H191.416C191.416 82.7871 191.504 82.4502 191.68 82.1162C191.855 81.7822 192.107 81.4805 192.436 81.2109C192.77 80.9355 193.168 80.7188 193.631 80.5605C194.1 80.3965 194.621 80.3145 195.195 80.3145C195.887 80.3145 196.496 80.4316 197.023 80.666C197.557 80.9004 197.973 81.2549 198.271 81.7295C198.576 82.1982 198.729 82.7871 198.729 83.4961V87.9258C198.729 88.2422 198.755 88.5791 198.808 88.9365C198.866 89.2939 198.951 89.6016 199.062 89.8594V90H197.366C197.284 89.8125 197.22 89.5635 197.173 89.2529C197.126 88.9365 197.103 88.6436 197.103 88.374ZM197.384 84.2344L197.401 85.377H195.758C195.295 85.377 194.882 85.415 194.519 85.4912C194.155 85.5615 193.851 85.6699 193.604 85.8164C193.358 85.9629 193.171 86.1475 193.042 86.3701C192.913 86.5869 192.849 86.8418 192.849 87.1348C192.849 87.4336 192.916 87.7061 193.051 87.9521C193.186 88.1982 193.388 88.3945 193.657 88.541C193.933 88.6816 194.27 88.752 194.668 88.752C195.166 88.752 195.605 88.6465 195.986 88.4355C196.367 88.2246 196.669 87.9668 196.892 87.6621C197.12 87.3574 197.243 87.0615 197.261 86.7744L197.955 87.5566C197.914 87.8027 197.803 88.0752 197.621 88.374C197.439 88.6729 197.196 88.96 196.892 89.2354C196.593 89.5049 196.235 89.7305 195.819 89.9121C195.409 90.0879 194.946 90.1758 194.431 90.1758C193.786 90.1758 193.221 90.0498 192.734 89.7979C192.254 89.5459 191.879 89.209 191.609 88.7871C191.346 88.3594 191.214 87.8818 191.214 87.3545C191.214 86.8447 191.313 86.3965 191.513 86.0098C191.712 85.6172 191.999 85.292 192.374 85.0342C192.749 84.7705 193.2 84.5713 193.728 84.4365C194.255 84.3018 194.844 84.2344 195.494 84.2344H197.384ZM202.912 81.9844V90H201.286V80.4902H202.868L202.912 81.9844ZM205.883 80.4375L205.874 81.9492C205.739 81.9199 205.61 81.9023 205.487 81.8965C205.37 81.8848 205.235 81.8789 205.083 81.8789C204.708 81.8789 204.377 81.9375 204.09 82.0547C203.803 82.1719 203.56 82.3359 203.36 82.5469C203.161 82.7578 203.003 83.0098 202.886 83.3027C202.774 83.5898 202.701 83.9062 202.666 84.252L202.209 84.5156C202.209 83.9414 202.265 83.4023 202.376 82.8984C202.493 82.3945 202.672 81.9492 202.912 81.5625C203.152 81.1699 203.457 80.8652 203.826 80.6484C204.201 80.4258 204.646 80.3145 205.162 80.3145C205.279 80.3145 205.414 80.3291 205.566 80.3584C205.719 80.3818 205.824 80.4082 205.883 80.4375ZM211.807 80.4902V81.7383H206.665V80.4902H211.807ZM208.405 78.1787H210.031V87.6445C210.031 87.9668 210.081 88.21 210.181 88.374C210.28 88.5381 210.409 88.6465 210.567 88.6992C210.726 88.752 210.896 88.7783 211.077 88.7783C211.212 88.7783 211.353 88.7666 211.499 88.7432C211.651 88.7139 211.766 88.6904 211.842 88.6729L211.851 90C211.722 90.041 211.552 90.0791 211.341 90.1143C211.136 90.1553 210.887 90.1758 210.594 90.1758C210.195 90.1758 209.829 90.0967 209.495 89.9385C209.161 89.7803 208.895 89.5166 208.695 89.1475C208.502 88.7725 208.405 88.2686 208.405 87.6357V78.1787ZM228.277 83.1973V84.0059C228.277 84.9668 228.157 85.8281 227.917 86.5898C227.677 87.3516 227.331 87.999 226.88 88.5322C226.429 89.0654 225.887 89.4727 225.254 89.7539C224.627 90.0352 223.924 90.1758 223.145 90.1758C222.389 90.1758 221.694 90.0352 221.062 89.7539C220.435 89.4727 219.89 89.0654 219.427 88.5322C218.97 87.999 218.615 87.3516 218.363 86.5898C218.111 85.8281 217.985 84.9668 217.985 84.0059V83.1973C217.985 82.2363 218.108 81.3779 218.354 80.6221C218.606 79.8604 218.961 79.2129 219.418 78.6797C219.875 78.1406 220.417 77.7305 221.044 77.4492C221.677 77.168 222.371 77.0273 223.127 77.0273C223.906 77.0273 224.609 77.168 225.236 77.4492C225.869 77.7305 226.411 78.1406 226.862 78.6797C227.319 79.2129 227.668 79.8604 227.908 80.6221C228.154 81.3779 228.277 82.2363 228.277 83.1973ZM226.599 84.0059V83.1797C226.599 82.418 226.52 81.7441 226.361 81.1582C226.209 80.5723 225.983 80.0801 225.685 79.6816C225.386 79.2832 225.02 78.9814 224.586 78.7764C224.158 78.5713 223.672 78.4688 223.127 78.4688C222.6 78.4688 222.122 78.5713 221.694 78.7764C221.272 78.9814 220.909 79.2832 220.604 79.6816C220.306 80.0801 220.074 80.5723 219.91 81.1582C219.746 81.7441 219.664 82.418 219.664 83.1797V84.0059C219.664 84.7734 219.746 85.4531 219.91 86.0449C220.074 86.6309 220.309 87.126 220.613 87.5303C220.924 87.9287 221.29 88.2305 221.712 88.4355C222.14 88.6406 222.617 88.7432 223.145 88.7432C223.695 88.7432 224.185 88.6406 224.612 88.4355C225.04 88.2305 225.4 87.9287 225.693 87.5303C225.992 87.126 226.218 86.6309 226.37 86.0449C226.522 85.4531 226.599 84.7734 226.599 84.0059ZM236.39 87.8027V80.4902H238.024V90H236.469L236.39 87.8027ZM236.697 85.7988L237.374 85.7812C237.374 86.4141 237.307 87 237.172 87.5391C237.043 88.0723 236.832 88.5352 236.539 88.9277C236.246 89.3203 235.862 89.6279 235.388 89.8506C234.913 90.0674 234.336 90.1758 233.656 90.1758C233.193 90.1758 232.769 90.1084 232.382 89.9736C232.001 89.8389 231.673 89.6309 231.397 89.3496C231.122 89.0684 230.908 88.7021 230.756 88.251C230.609 87.7998 230.536 87.2578 230.536 86.625V80.4902H232.162V86.6426C232.162 87.0703 232.209 87.4248 232.303 87.7061C232.402 87.9814 232.534 88.2012 232.698 88.3652C232.868 88.5234 233.056 88.6348 233.261 88.6992C233.472 88.7637 233.688 88.7959 233.911 88.7959C234.603 88.7959 235.15 88.6641 235.555 88.4004C235.959 88.1309 236.249 87.7705 236.425 87.3193C236.606 86.8623 236.697 86.3555 236.697 85.7988ZM242.129 81.9844V90H240.503V80.4902H242.085L242.129 81.9844ZM245.1 80.4375L245.091 81.9492C244.956 81.9199 244.827 81.9023 244.704 81.8965C244.587 81.8848 244.452 81.8789 244.3 81.8789C243.925 81.8789 243.594 81.9375 243.307 82.0547C243.02 82.1719 242.776 82.3359 242.577 82.5469C242.378 82.7578 242.22 83.0098 242.103 83.3027C241.991 83.5898 241.918 83.9062 241.883 84.252L241.426 84.5156C241.426 83.9414 241.481 83.4023 241.593 82.8984C241.71 82.3945 241.889 81.9492 242.129 81.5625C242.369 81.1699 242.674 80.8652 243.043 80.6484C243.418 80.4258 243.863 80.3145 244.379 80.3145C244.496 80.3145 244.631 80.3291 244.783 80.3584C244.936 80.3818 245.041 80.4082 245.1 80.4375ZM256.684 86.2646V77.2031H258.371V86.2646C258.371 87.1084 258.198 87.8203 257.853 88.4004C257.507 88.9805 257.029 89.4229 256.42 89.7275C255.816 90.0264 255.122 90.1758 254.337 90.1758C253.552 90.1758 252.854 90.041 252.245 89.7715C251.636 89.502 251.158 89.0918 250.812 88.541C250.467 87.9902 250.294 87.2959 250.294 86.458H251.99C251.99 86.9971 252.09 87.4395 252.289 87.7852C252.488 88.1309 252.764 88.3857 253.115 88.5498C253.473 88.7139 253.88 88.7959 254.337 88.7959C254.782 88.7959 255.181 88.7021 255.532 88.5146C255.89 88.3213 256.171 88.0371 256.376 87.6621C256.581 87.2812 256.684 86.8154 256.684 86.2646ZM260.568 85.3506V85.1484C260.568 84.4629 260.668 83.8271 260.867 83.2412C261.066 82.6494 261.354 82.1367 261.729 81.7031C262.104 81.2637 262.558 80.9238 263.091 80.6836C263.624 80.4375 264.222 80.3145 264.884 80.3145C265.552 80.3145 266.152 80.4375 266.686 80.6836C267.225 80.9238 267.682 81.2637 268.057 81.7031C268.438 82.1367 268.728 82.6494 268.927 83.2412C269.126 83.8271 269.226 84.4629 269.226 85.1484V85.3506C269.226 86.0361 269.126 86.6719 268.927 87.2578C268.728 87.8438 268.438 88.3564 268.057 88.7959C267.682 89.2295 267.228 89.5693 266.694 89.8154C266.167 90.0557 265.569 90.1758 264.901 90.1758C264.233 90.1758 263.633 90.0557 263.1 89.8154C262.566 89.5693 262.109 89.2295 261.729 88.7959C261.354 88.3564 261.066 87.8438 260.867 87.2578C260.668 86.6719 260.568 86.0361 260.568 85.3506ZM262.194 85.1484V85.3506C262.194 85.8252 262.25 86.2734 262.361 86.6953C262.473 87.1113 262.64 87.4805 262.862 87.8027C263.091 88.125 263.375 88.3799 263.715 88.5674C264.055 88.749 264.45 88.8398 264.901 88.8398C265.347 88.8398 265.736 88.749 266.07 88.5674C266.41 88.3799 266.691 88.125 266.914 87.8027C267.137 87.4805 267.304 87.1113 267.415 86.6953C267.532 86.2734 267.591 85.8252 267.591 85.3506V85.1484C267.591 84.6797 267.532 84.2373 267.415 83.8213C267.304 83.3994 267.134 83.0273 266.905 82.7051C266.683 82.377 266.401 82.1191 266.062 81.9316C265.728 81.7441 265.335 81.6504 264.884 81.6504C264.438 81.6504 264.046 81.7441 263.706 81.9316C263.372 82.1191 263.091 82.377 262.862 82.7051C262.64 83.0273 262.473 83.3994 262.361 83.8213C262.25 84.2373 262.194 84.6797 262.194 85.1484ZM277.083 87.8027V80.4902H278.718V90H277.162L277.083 87.8027ZM277.391 85.7988L278.067 85.7812C278.067 86.4141 278 87 277.865 87.5391C277.736 88.0723 277.525 88.5352 277.232 88.9277C276.939 89.3203 276.556 89.6279 276.081 89.8506C275.606 90.0674 275.029 90.1758 274.35 90.1758C273.887 90.1758 273.462 90.1084 273.075 89.9736C272.694 89.8389 272.366 89.6309 272.091 89.3496C271.815 89.0684 271.602 88.7021 271.449 88.251C271.303 87.7998 271.229 87.2578 271.229 86.625V80.4902H272.855V86.6426C272.855 87.0703 272.902 87.4248 272.996 87.7061C273.096 87.9814 273.228 88.2012 273.392 88.3652C273.562 88.5234 273.749 88.6348 273.954 88.6992C274.165 88.7637 274.382 88.7959 274.604 88.7959C275.296 88.7959 275.844 88.6641 276.248 88.4004C276.652 88.1309 276.942 87.7705 277.118 87.3193C277.3 86.8623 277.391 86.3555 277.391 85.7988ZM282.822 81.9844V90H281.196V80.4902H282.778L282.822 81.9844ZM285.793 80.4375L285.784 81.9492C285.649 81.9199 285.521 81.9023 285.397 81.8965C285.28 81.8848 285.146 81.8789 284.993 81.8789C284.618 81.8789 284.287 81.9375 284 82.0547C283.713 82.1719 283.47 82.3359 283.271 82.5469C283.071 82.7578 282.913 83.0098 282.796 83.3027C282.685 83.5898 282.611 83.9062 282.576 84.252L282.119 84.5156C282.119 83.9414 282.175 83.4023 282.286 82.8984C282.403 82.3945 282.582 81.9492 282.822 81.5625C283.062 81.1699 283.367 80.8652 283.736 80.6484C284.111 80.4258 284.557 80.3145 285.072 80.3145C285.189 80.3145 285.324 80.3291 285.477 80.3584C285.629 80.3818 285.734 80.4082 285.793 80.4375ZM288.922 82.5205V90H287.296V80.4902H288.834L288.922 82.5205ZM288.535 84.8848L287.858 84.8584C287.864 84.208 287.961 83.6074 288.148 83.0566C288.336 82.5 288.6 82.0166 288.939 81.6064C289.279 81.1963 289.684 80.8799 290.152 80.6572C290.627 80.4287 291.151 80.3145 291.726 80.3145C292.194 80.3145 292.616 80.3789 292.991 80.5078C293.366 80.6309 293.686 80.8301 293.949 81.1055C294.219 81.3809 294.424 81.7383 294.564 82.1777C294.705 82.6113 294.775 83.1416 294.775 83.7686V90H293.141V83.751C293.141 83.2529 293.067 82.8545 292.921 82.5557C292.774 82.251 292.561 82.0312 292.279 81.8965C291.998 81.7559 291.652 81.6855 291.242 81.6855C290.838 81.6855 290.469 81.7705 290.135 81.9404C289.807 82.1104 289.522 82.3447 289.282 82.6436C289.048 82.9424 288.863 83.2852 288.729 83.6719C288.6 84.0527 288.535 84.457 288.535 84.8848ZM301.191 90.1758C300.529 90.1758 299.929 90.0645 299.39 89.8418C298.856 89.6133 298.396 89.2939 298.01 88.8838C297.629 88.4736 297.336 87.9873 297.131 87.4248C296.926 86.8623 296.823 86.2471 296.823 85.5791V85.21C296.823 84.4365 296.938 83.748 297.166 83.1445C297.395 82.5352 297.705 82.0195 298.098 81.5977C298.49 81.1758 298.936 80.8564 299.434 80.6396C299.932 80.4229 300.447 80.3145 300.98 80.3145C301.66 80.3145 302.246 80.4316 302.738 80.666C303.236 80.9004 303.644 81.2285 303.96 81.6504C304.276 82.0664 304.511 82.5586 304.663 83.127C304.815 83.6895 304.892 84.3047 304.892 84.9727V85.7021H297.79V84.375H303.266V84.252C303.242 83.8301 303.154 83.4199 303.002 83.0215C302.855 82.623 302.621 82.2949 302.299 82.0371C301.977 81.7793 301.537 81.6504 300.98 81.6504C300.611 81.6504 300.271 81.7295 299.961 81.8877C299.65 82.04 299.384 82.2686 299.161 82.5732C298.938 82.8779 298.766 83.25 298.643 83.6895C298.52 84.1289 298.458 84.6357 298.458 85.21V85.5791C298.458 86.0303 298.52 86.4551 298.643 86.8535C298.771 87.2461 298.956 87.5918 299.196 87.8906C299.442 88.1895 299.738 88.4238 300.084 88.5938C300.436 88.7637 300.834 88.8486 301.279 88.8486C301.854 88.8486 302.34 88.7314 302.738 88.4971C303.137 88.2627 303.485 87.9492 303.784 87.5566L304.769 88.3389C304.563 88.6494 304.303 88.9453 303.986 89.2266C303.67 89.5078 303.28 89.7363 302.817 89.9121C302.36 90.0879 301.818 90.1758 301.191 90.1758ZM309.339 89.0156L311.984 80.4902H313.725L309.91 91.4678C309.822 91.7021 309.705 91.9541 309.559 92.2236C309.418 92.499 309.236 92.7598 309.014 93.0059C308.791 93.252 308.521 93.4512 308.205 93.6035C307.895 93.7617 307.522 93.8408 307.089 93.8408C306.96 93.8408 306.796 93.8232 306.597 93.7881C306.397 93.7529 306.257 93.7236 306.175 93.7002L306.166 92.3818C306.213 92.3877 306.286 92.3936 306.386 92.3994C306.491 92.4111 306.564 92.417 306.605 92.417C306.975 92.417 307.288 92.3672 307.546 92.2676C307.804 92.1738 308.021 92.0127 308.196 91.7842C308.378 91.5615 308.533 91.2539 308.662 90.8613L309.339 89.0156ZM307.396 80.4902L309.866 87.873L310.288 89.5869L309.119 90.1846L305.621 80.4902H307.396ZM317.126 77.2031L317.012 86.3877H315.544L315.421 77.2031H317.126ZM315.368 89.1826C315.368 88.9189 315.447 88.6963 315.605 88.5146C315.77 88.333 316.01 88.2422 316.326 88.2422C316.637 88.2422 316.874 88.333 317.038 88.5146C317.208 88.6963 317.293 88.9189 317.293 89.1826C317.293 89.4346 317.208 89.6514 317.038 89.833C316.874 90.0146 316.637 90.1055 316.326 90.1055C316.01 90.1055 315.77 90.0146 315.605 89.833C315.447 89.6514 315.368 89.4346 315.368 89.1826Z" fill="#6F6F6F"/>
<rect x="856.576" y="8.4978" width="92" height="81" rx="10" transform="rotate(-27.1929 856.576 8.4978)" fill="#F1BD6C"/>
<rect x="916" y="82.0428" width="92" height="81" rx="10" transform="rotate(-27.1929 916 82.0428)" fill="#F1BD6C"/>
</g>
<defs>
<clipPath id="clip0_1_65">
<rect width="994" height="128" rx="20" fill="white"/>
</clipPath>
</defs>
</svg>
