<svg width="36" height="36" viewBox="0 0 36 36" fill="none" xmlns="http://www.w3.org/2000/svg">
<circle cx="18" cy="18" r="17.85" fill="white" stroke="#6F6F6F" stroke-width="0.3"/>
<g clip-path="url(#clip0_93_12)">
<path d="M24.5701 23.5116L24.1735 23.1081L23.9411 23.3348L24.0205 23.6487L24.5701 23.5116ZM25.3 26.4333L25.1629 26.983C25.2577 27.0066 25.3571 27.0053 25.4513 26.9792C25.5455 26.953 25.6314 26.903 25.7005 26.8338C25.7696 26.7647 25.8197 26.6788 25.8458 26.5846C25.872 26.4904 25.8733 26.3911 25.8497 26.2962L25.3 26.4333ZM20.7667 25.3L20.3655 24.8988L19.6583 25.6071L20.6295 25.8497L20.7667 25.3ZM20.795 25.2717L21.1951 25.6729C21.2778 25.5905 21.333 25.4846 21.3532 25.3696C21.3735 25.2547 21.3577 25.1363 21.3081 25.0306C21.2585 24.9249 21.1775 24.8372 21.0761 24.7793C20.9747 24.7214 20.8579 24.6963 20.7417 24.7073L20.795 25.2717ZM17.9333 10V12.8333H19.0667V10H17.9333ZM20.2 12.2667H16.8V13.4H20.2V12.2667ZM27 19.0667C27 17.2632 26.2836 15.5336 25.0083 14.2583C23.7331 12.9831 22.0035 12.2667 20.2 12.2667V13.4C20.9442 13.4 21.681 13.5466 22.3685 13.8313C23.0561 14.1161 23.6807 14.5335 24.2069 15.0597C24.7331 15.5859 25.1505 16.2106 25.4353 16.8981C25.7201 17.5856 25.8667 18.3225 25.8667 19.0667H27ZM24.9668 23.9162C25.6118 23.2839 26.124 22.5291 26.4731 21.6961C26.8223 20.8631 27.0014 19.9699 27 19.0667H25.8667C25.8681 19.8194 25.719 20.5638 25.428 21.258C25.137 21.9523 24.7112 22.5813 24.1735 23.1081L24.9668 23.9162ZM25.8508 26.2962L25.1187 23.3733L24.0193 23.6476L24.7492 26.5693L25.8508 26.2962ZM20.6295 25.8497L25.1629 26.983L25.4371 25.8837L20.9038 24.7503L20.6295 25.8497ZM20.3938 24.8716L20.3655 24.8988L21.1679 25.7001L21.1951 25.6729L20.3938 24.8716ZM20.2 25.8667C20.4191 25.8667 20.6352 25.8565 20.8483 25.8361L20.7417 24.7073C20.5617 24.7246 20.3809 24.7333 20.2 24.7333V25.8667ZM16.8 25.8667H20.2V24.7333H16.8V25.8667ZM10 19.0667C10 20.8701 10.7164 22.5997 11.9917 23.875C13.2669 25.1502 14.9965 25.8667 16.8 25.8667V24.7333C16.0558 24.7333 15.319 24.5868 14.6315 24.302C13.9439 24.0172 13.3193 23.5998 12.7931 23.0736C11.7304 22.0109 11.1333 20.5696 11.1333 19.0667H10ZM16.8 12.2667C14.9965 12.2667 13.2669 12.9831 11.9917 14.2583C10.7164 15.5336 10 17.2632 10 19.0667H11.1333C11.1333 17.5638 11.7304 16.1224 12.7931 15.0597C13.8558 13.997 15.2971 13.4 16.8 13.4V12.2667ZM18.5 19.0667C18.0491 19.0667 17.6167 18.8876 17.2979 18.5687C16.9791 18.2499 16.8 17.8175 16.8 17.3667H15.6667C15.6667 18.1181 15.9652 18.8388 16.4965 19.3701C17.0279 19.9015 17.7486 20.2 18.5 20.2V19.0667ZM20.2 17.3667C20.2 17.8175 20.0209 18.2499 19.7021 18.5687C19.3833 18.8876 18.9509 19.0667 18.5 19.0667V20.2C19.2514 20.2 19.9721 19.9015 20.5035 19.3701C21.0348 18.8388 21.3333 18.1181 21.3333 17.3667H20.2ZM18.5 15.6667C18.9509 15.6667 19.3833 15.8458 19.7021 16.1646C20.0209 16.4834 20.2 16.9158 20.2 17.3667H21.3333C21.3333 16.6152 21.0348 15.8946 20.5035 15.3632C19.9721 14.8318 19.2514 14.5333 18.5 14.5333V15.6667ZM18.5 14.5333C17.7486 14.5333 17.0279 14.8318 16.4965 15.3632C15.9652 15.8946 15.6667 16.6152 15.6667 17.3667H16.8C16.8 16.9158 16.9791 16.4834 17.2979 16.1646C17.6167 15.8458 18.0491 15.6667 18.5 15.6667V14.5333ZM18.5 23.6C19.7059 23.6 20.8143 23.1807 21.6881 22.4814L20.9786 21.5974C20.2986 22.1414 19.4384 22.4667 18.5 22.4667V23.6ZM15.3119 22.4814C16.1846 23.1807 17.2953 23.6 18.5 23.6V22.4667C17.5987 22.4686 16.724 22.1618 16.0214 21.5974L15.3119 22.4814Z" fill="#272727"/>
</g>
<defs>
<clipPath id="clip0_93_12">
<rect width="17" height="17" fill="white" transform="translate(10 10)"/>
</clipPath>
</defs>
</svg>
