<svg width="994" height="128" viewBox="0 0 994 128" fill="none" xmlns="http://www.w3.org/2000/svg">
<g clip-path="url(#clip0_33_7)">
<rect width="994" height="128" rx="20" fill="#EF85C5" fill-opacity="0.2"/>
<path d="M1003.06 125.391C1005.39 132.728 998.9 139.836 991.381 138.186L910.175 120.365C902.656 118.715 899.743 109.544 904.931 103.858L960.967 42.4413C966.156 36.7547 975.555 38.8172 977.885 46.154L1003.06 125.391Z" fill="#EF85C5"/>
<path d="M894.226 -29.6971C881.279 -28.3568 869.32 -22.1637 860.753 -12.3633C852.187 -2.56293 847.65 10.1176 848.054 23.1277C848.458 36.1378 853.773 48.5124 862.931 57.7623C872.089 67.0123 884.41 72.4514 897.415 72.9857C910.42 73.5201 923.146 69.1099 933.031 60.6424C942.917 52.1748 949.23 40.278 950.7 27.3449C952.17 14.4118 948.688 1.40176 940.954 -9.06826C933.221 -19.5383 921.81 -26.6916 909.016 -29.0895L904.698 -6.04707C911.667 -4.74076 917.884 -0.843737 922.097 4.86017C926.31 10.5641 928.207 17.6517 927.406 24.6975C926.605 31.7432 923.166 38.2244 917.781 42.8374C912.395 47.4504 905.463 49.853 898.377 49.5619C891.292 49.2708 884.58 46.3076 879.591 41.2684C874.602 36.2292 871.706 29.4877 871.486 22.4C871.266 15.3123 873.738 8.40417 878.405 3.06509C883.071 -2.274 889.587 -5.64794 896.64 -6.3781L894.226 -29.6971Z" fill="#EF85C5"/>
</g>
<defs>
<clipPath id="clip0_33_7">
<rect width="994" height="128" rx="20" fill="white"/>
</clipPath>
</defs>
</svg>
