<svg width="24" height="24" viewBox="0 0 12 12" fill="none" xmlns="http://www.w3.org/2000/svg">
<path d="M5.51695 0C2.48263 0 0 2.48263 0 5.51695C0 8.55127 2.48263 11.0339 5.51695 11.0339C8.55127 11.0339 11.0339 8.55127 11.0339 5.51695C11.0339 2.48263 8.55127 0 5.51695 0ZM5.51695 9.93051C3.08397 9.93051 1.10339 7.94992 1.10339 5.51695C1.10339 3.08397 3.08397 1.10339 5.51695 1.10339C7.94992 1.10339 9.93051 3.08397 9.93051 5.51695C9.93051 7.94992 7.94992 9.93051 5.51695 9.93051ZM8.04923 3.07846L4.41356 6.71413L2.98467 5.29075L2.20678 6.06864L4.41356 8.27542L8.82712 3.86186L8.04923 3.07846Z" fill="#272727"/>
</svg>
