<svg width="994" height="128" viewBox="0 0 994 128" fill="none" xmlns="http://www.w3.org/2000/svg">
<g clip-path="url(#clip0_291_2)">
<rect width="994" height="128" rx="20" fill="#EF85C5" fill-opacity="0.2"/>
<path d="M1003.06 125.391C1005.39 132.728 998.9 139.836 991.381 138.186L910.175 120.365C902.656 118.715 899.743 109.544 904.931 103.858L960.968 42.4414C966.156 36.7547 975.555 38.8173 977.886 46.1541L1003.06 125.391Z" fill="#EF85C5"/>
<path d="M894.226 -29.697C881.279 -28.3568 869.319 -22.1636 860.753 -12.3632C852.187 -2.56286 847.65 10.1177 848.054 23.1278C848.458 36.1379 853.773 48.5124 862.931 57.7624C872.089 67.0123 884.409 72.4515 897.415 72.9858C910.42 73.5201 923.146 69.11 933.031 60.6424C942.917 52.1749 949.23 40.2781 950.699 27.3449C952.169 14.4118 948.687 1.40182 940.954 -9.0682C933.221 -19.5382 921.81 -26.6916 909.016 -29.0894L904.697 -6.047C911.667 -4.7407 917.884 -0.843676 922.097 4.86023C926.31 10.5641 928.207 17.6518 927.406 24.6975C926.605 31.7433 923.166 38.2245 917.78 42.8375C912.395 47.4504 905.462 49.853 898.377 49.5619C891.292 49.2708 884.58 46.3077 879.591 41.2685C874.602 36.2292 871.706 29.4878 871.486 22.4001C871.266 15.3124 873.738 8.40423 878.404 3.06515C883.071 -2.27394 889.586 -5.64788 896.64 -6.37804L894.226 -29.697Z" fill="#EF85C5"/>
</g>
<defs>
<clipPath id="clip0_291_2">
<rect width="994" height="128" rx="20" fill="white"/>
</clipPath>
</defs>
</svg>
