<svg width="18" height="18" viewBox="0 0 18 18" fill="none" xmlns="http://www.w3.org/2000/svg">
<path d="M7.13506 18L6.77306 15.108C6.45372 15.0113 6.10872 14.86 5.73806 14.654C5.36672 14.4473 5.05106 14.226 4.79106 13.99L2.12306 15.125L0.258057 11.875L2.56406 10.136C2.53406 9.956 2.50972 9.77 2.49106 9.578C2.47106 9.386 2.46106 9.19967 2.46106 9.019C2.46106 8.851 2.47106 8.67433 2.49106 8.489C2.50972 8.30367 2.53406 8.095 2.56406 7.863L0.258057 6.126L2.12306 2.914L4.77106 4.03C5.06972 3.78133 5.39306 3.557 5.74106 3.357C6.08772 3.157 6.42539 3.00233 6.75406 2.893L7.13406 0H10.8661L11.2271 2.912C11.6104 3.04667 11.9491 3.201 12.2431 3.375C12.5371 3.549 12.8401 3.767 13.1521 4.029L15.8771 2.914L17.7421 6.125L15.3601 7.921C15.4147 8.12767 15.4454 8.31733 15.4521 8.49C15.4587 8.66267 15.4621 8.83267 15.4621 9C15.4621 9.15533 15.4554 9.319 15.4421 9.491C15.4294 9.66367 15.4001 9.87233 15.3541 10.117L17.6981 11.875L15.8331 15.125L13.1521 13.971C12.8407 14.233 12.5274 14.4573 12.2121 14.644C11.8967 14.8307 11.5684 14.979 11.2271 15.089L10.8661 18H7.13506ZM8.00006 17H9.95606L10.3251 14.292C10.8291 14.1587 11.2824 13.9757 11.6851 13.743C12.0891 13.5103 12.4997 13.1917 12.9171 12.787L15.4121 13.85L16.4061 12.15L14.2171 10.506C14.3004 10.2213 14.3557 9.95933 14.3831 9.72C14.4097 9.48133 14.4231 9.24133 14.4231 9C14.4231 8.74667 14.4097 8.50667 14.3831 8.28C14.3564 8.05333 14.3011 7.80433 14.2171 7.533L16.4441 5.85L15.4501 4.15L12.8981 5.22C12.5954 4.88733 12.1977 4.57567 11.7051 4.285C11.2117 3.995 10.7451 3.80267 10.3051 3.708L10.0001 1H8.00606L7.69406 3.689C7.19006 3.79633 6.72672 3.96967 6.30406 4.209C5.88206 4.44767 5.46206 4.776 5.04406 5.194L2.55006 4.15L1.55606 5.85L3.72506 7.47C3.64172 7.694 3.58339 7.93733 3.55006 8.2C3.51672 8.46267 3.50006 8.736 3.50006 9.02C3.50006 9.27333 3.51672 9.525 3.55006 9.775C3.58339 10.025 3.63539 10.2683 3.70606 10.505L1.55606 12.15L2.55006 13.85L5.02506 12.8C5.41772 13.196 5.82506 13.5137 6.24706 13.753C6.66972 13.9923 7.14572 14.1787 7.67506 14.312L8.00006 17ZM8.97306 11.5C9.67039 11.5 10.2614 11.2577 10.7461 10.773C11.2307 10.2883 11.4731 9.69733 11.4731 9C11.4731 8.30267 11.2307 7.71167 10.7461 7.227C10.2614 6.74233 9.67039 6.5 8.97306 6.5C8.27172 6.5 7.67972 6.74233 7.19706 7.227C6.71439 7.71167 6.47306 8.30267 6.47306 9C6.47306 9.69733 6.71439 10.2883 7.19706 10.773C7.67972 11.2577 8.27172 11.5 8.97306 11.5Z" fill="#80BECC"/>
</svg>
